<svg height="512pt" viewBox="0 0 512 512" width="512pt" xmlns="http://www.w3.org/2000/svg" xmlns:xlink="http://www.w3.org/1999/xlink"><linearGradient id="a" gradientTransform="matrix(1 0 0 -1 0 -14446)" gradientUnits="userSpaceOnUse" x1="0" x2="512" y1="-14702" y2="-14702"><stop offset="0" stop-color="#00f38d"/><stop offset="1" stop-color="#009eff"/></linearGradient><path d="m512 256c0 141.386719-114.613281 256-256 256s-256-114.613281-256-256 114.613281-256 256-256 256 114.613281 256 256zm0 0" fill="url(#a)"/><g fill="#fff"><path d="m280.300781 76.679688c0 12.988281-10.527343 23.515624-23.515625 23.515624-12.988281 0-23.519531-10.527343-23.519531-23.515624 0-12.988282 10.53125-23.519532 23.519531-23.519532 12.988282 0 23.515625 10.53125 23.515625 23.519532zm0 0"/><path d="m256 268.734375c8.660156 0 15.679688-7.019531 15.679688-15.679687 0-5.988282-3.359376-11.1875-8.292969-13.828126l-135.921875-135.917968-21.210938 21.210937 135.917969 135.921875c2.640625 4.933594 7.839844 8.292969 13.828125 8.292969zm0 0"/><path d="m416.480469 133.683594c-25.339844-34.023438-60.019531-58.710938-100.285157-71.40625l-9.019531 28.613281c71.074219 22.40625 118.824219 87.574219 118.824219 162.164063v.785156c0 93.738281-76.261719 170-170 170s-170-76.261719-170-170v-.785156c0-30.015626 7.925781-59.515626 22.914062-85.300782l-25.933593-15.078125c-17.652344 30.359375-26.980469 65.070313-26.980469 100.378907v.785156c0 110.28125 89.71875 200 200 200s200-89.71875 200-200v-.785156c0-43.390626-13.664062-84.667969-39.519531-119.371094zm0 0"/></g></svg>